# xmcd
#
# Track frame offsets:
#	150
#	24236
#	55708
#	75495
#	96603
#	115538
#	131931
#	145121
#	168737
#	186087
#	204078
#	226981
#
# Disc length: 3297 seconds
#
# Revision: 2
# Processed by: cddbd v1.5.1PL2 Copyright (c) Steve Scherf et al.
# Submitted via: audiograbber 1.83.01
#
DISCID=990cdf0c
DTITLE=Various Artist - A History of Progressive Blues
DYEAR=2003
DGENRE=Blues
TTITLE0=Dick Hexall Smith feat. Clem Clemson - Millennium Blues
TTITLE1=John Mayall &The Bluesbreakers - Padlock On the Blues
TTITLE2=Procol Harum - Wall Street Blues
TTITLE3=Scott Holt - Angels In Exile
TTITLE4=Snowy White's Blues Agency - The Thrill Is Gone
TTITLE5=Peter Green Splinter Group - Downsize Blues
TTITLE6=Michael Messer - King Guitar
TTITLE7=Rab McCulloch - Shame On You
TTITLE8=Frankie Miller - Just Like Tom Thumb's Blues
TTITLE9=Edgar Winter - You Are My Song
TTITLE10=Dick Hexall Smith feat. Paul Jones and Jon Hiseman - Rollin' And Tumblin
TTITLE10='
TTITLE11=Snowy White's Blues Agency - Woke Up This Morning
EXTD=YEAR: 2003
EXTT0=
EXTT1=
EXTT2=
EXTT3=
EXTT4=
EXTT5=
EXTT6=
EXTT7=
EXTT8=
EXTT9=
EXTT10=
EXTT11=
PLAYORDER=
